<svg width="28" height="14" viewBox="0 0 28 14" fill="none" xmlns="http://www.w3.org/2000/svg">
<path d="M6.3 13.252C5.136 13.252 4.122 12.988 3.258 12.46C2.394 11.92 1.722 11.158 1.242 10.174C0.774 9.178 0.54 8.02 0.54 6.7C0.54 5.392 0.78 4.246 1.26 3.262C1.752 2.266 2.43 1.498 3.294 0.957999C4.158 0.417999 5.136 0.147999 6.228 0.147999C7.188 0.147999 8.1 0.327999 8.964 0.688L8.784 2.218C8.016 1.834 7.272 1.642 6.552 1.642C5.664 1.642 4.902 1.864 4.266 2.308C3.642 2.752 3.168 3.358 2.844 4.126C2.52 4.894 2.358 5.752 2.358 6.7C2.358 7.648 2.52 8.506 2.844 9.274C3.168 10.042 3.642 10.648 4.266 11.092C4.902 11.536 5.67 11.758 6.57 11.758C7.35 11.758 8.088 11.578 8.784 11.218L8.964 12.748C8.196 13.084 7.308 13.252 6.3 13.252ZM12.1755 13.18C11.5035 13.18 10.9515 12.94 10.5195 12.46C10.0875 11.98 9.87145 11.368 9.87145 10.624C9.87145 9.52 10.3335 8.728 11.2575 8.248C12.1815 7.756 13.2135 7.498 14.3535 7.474C14.3535 6.706 14.2395 6.172 14.0115 5.872C13.7835 5.572 13.3995 5.422 12.8595 5.422C12.1635 5.422 11.4555 5.692 10.7355 6.232L10.5375 4.918C11.2935 4.306 12.1695 4 13.1655 4C14.1135 4 14.8155 4.276 15.2715 4.828C15.7275 5.368 15.9555 6.244 15.9555 7.456V10.03C15.9555 10.714 16.0035 11.2 16.0995 11.488C16.1955 11.764 16.4055 11.902 16.7295 11.902H16.9275L16.7295 13.18H16.3875C15.8355 13.18 15.4275 13.078 15.1635 12.874C14.8995 12.67 14.6835 12.34 14.5155 11.884C14.2395 12.28 13.8975 12.598 13.4895 12.838C13.0815 13.066 12.6435 13.18 12.1755 13.18ZM12.6615 11.902C12.9495 11.902 13.2495 11.794 13.5615 11.578C13.8735 11.35 14.1375 11.056 14.3535 10.696V8.59C13.4295 8.638 12.7275 8.818 12.2475 9.13C11.7675 9.43 11.5275 9.898 11.5275 10.534C11.5275 11.446 11.9055 11.902 12.6615 11.902ZM18.2701 4.18H19.5481L19.7461 5.656C20.1421 5.08 20.5141 4.66 20.8621 4.396C21.2221 4.132 21.6001 4 21.9961 4C22.1521 4 22.2901 4.018 22.4101 4.054L22.2481 5.836C22.0921 5.8 21.9121 5.782 21.7081 5.782C21.3121 5.782 20.9401 5.884 20.5921 6.088C20.2441 6.28 19.9921 6.508 19.8361 6.772V13H18.2701V4.18ZM26.0987 13.18C25.4147 13.18 24.9047 12.976 24.5687 12.568C24.2447 12.16 24.0827 11.662 24.0827 11.074V5.422H22.8587L23.0027 4.18H24.0827V2.002L25.6487 1.84V4.18H27.5567V5.422H25.6487V10.444C25.6487 10.984 25.7447 11.362 25.9367 11.578C26.1407 11.794 26.4887 11.902 26.9807 11.902H27.5387L27.3947 13.18H26.0987Z" fill="#706D6E"/>
</svg>
