<svg width="143" height="53" viewBox="0 0 143 53" fill="none" xmlns="http://www.w3.org/2000/svg">
<g filter="url(#filter0_d_418_272)">
<path d="M51.52 24.68L43.32 11H48.52L54.12 20.32L59.68 11H64.88L56.72 24.68L65.28 39H60.08L54.12 29L48.12 39H42.92L51.52 24.68ZM81.6275 23.84C84.7208 25.04 86.2675 27.44 86.2675 31.04C86.2675 33.5467 85.5608 35.5067 84.1475 36.92C82.7342 38.3067 80.7875 39 78.3075 39H67.8275V11H77.1875C79.4808 11 81.1875 11.5733 82.3075 12.72C83.4542 13.8667 84.0275 15.5467 84.0275 17.76C84.0275 20.6133 83.2275 22.64 81.6275 23.84ZM72.7075 22.08H76.3075C77.2942 22.08 78.0275 21.8133 78.5075 21.28C78.9875 20.7467 79.2275 19.92 79.2275 18.8C79.2275 17.6267 78.9875 16.7867 78.5075 16.28C78.0275 15.7467 77.2942 15.48 76.3075 15.48H72.7075V22.08ZM77.4275 34.52C78.6542 34.52 79.5875 34.2267 80.2275 33.64C80.8942 33.0267 81.2275 32 81.2275 30.56C81.2275 29.0667 80.8808 28.0133 80.1875 27.4C79.5208 26.7867 78.6008 26.48 77.4275 26.48H72.7075V34.52H77.4275ZM100.807 39.56C98.5132 39.56 96.4599 38.96 94.6466 37.76C92.8599 36.5333 91.4599 34.8267 90.4466 32.64C89.4332 30.4267 88.9266 27.88 88.9266 25C88.9266 22.12 89.4332 19.5867 90.4466 17.4C91.4599 15.1867 92.8599 13.48 94.6466 12.28C96.4599 11.0533 98.5132 10.44 100.807 10.44C103.1 10.44 105.14 11.04 106.927 12.24C108.74 13.44 110.153 15.1467 111.167 17.36C112.18 19.5733 112.687 22.12 112.687 25C112.687 27.88 112.18 30.4267 111.167 32.64C110.153 34.8533 108.74 36.56 106.927 37.76C105.14 38.96 103.1 39.56 100.807 39.56ZM100.807 34.64C102.967 34.64 104.62 33.76 105.767 32C106.913 30.24 107.487 27.9067 107.487 25C107.487 22.0933 106.913 19.76 105.767 18C104.62 16.24 102.967 15.36 100.807 15.36C98.6466 15.36 96.9932 16.24 95.8466 18C94.6999 19.76 94.1266 22.0933 94.1266 25C94.1266 27.9067 94.6999 30.24 95.8466 32C96.9932 33.76 98.6466 34.64 100.807 34.64ZM121.481 24.68L113.281 11H118.481L124.081 20.32L129.641 11H134.841L126.681 24.68L135.241 39H130.041L124.081 29L118.081 39H112.881L121.481 24.68Z" fill="#107B11"/>
<path d="M18.8542 41.932C16.2398 41.6626 13.7279 40.7715 11.5282 39.3332C9.67612 38.1266 9.25744 37.6296 9.25744 36.6395C9.25744 34.6492 11.4478 31.1614 15.1953 27.1869C17.3217 24.9285 20.2876 22.2822 20.6073 22.3544C21.2301 22.4947 26.2131 27.3519 28.0776 29.6372C31.0269 33.2529 32.384 36.2147 31.6952 37.5347C31.1713 38.5371 27.9208 40.4985 25.5345 41.2514C23.5669 41.8722 20.9826 42.1362 18.8542 41.932ZM6.75565 34.5688C5.21497 32.2092 4.43742 29.8868 4.06205 26.5249C3.9383 25.4132 3.98367 24.78 4.34461 22.5029C4.79423 19.6628 6.41121 16.3772 8.35613 14.3559C9.18319 13.4958 9.25744 13.4752 10.266 13.8135C11.4932 14.226 12.8028 15.1294 14.8303 16.965L16.0141 18.0355L15.3686 18.8295C12.3656 22.5153 9.19763 27.7397 8.00139 30.9717C7.35171 32.729 7.08977 34.4924 7.37027 35.2267C7.55795 35.7217 7.3847 35.5361 6.75152 34.5688H6.75565ZM33.7762 34.971C33.9288 34.2284 33.737 32.8672 33.2854 31.4915C32.3098 28.5152 29.0469 22.9773 26.0502 19.2132L25.1076 18.0272L26.1265 17.0908C27.4588 15.8677 28.3849 15.1355 29.3852 14.5127C30.171 14.0238 31.2971 13.5886 31.7797 13.5886C32.0788 13.5886 33.1286 14.6777 33.9763 15.8657C35.325 17.7878 36.2675 19.9649 36.7462 22.2637C37.0618 23.7652 37.0886 26.9786 36.7957 28.476C36.5208 29.8172 36.106 31.1258 35.5582 32.3804C35.189 33.191 34.2712 34.7647 33.867 35.2762C33.6607 35.5402 33.6607 35.5381 33.7783 34.971H33.7762ZM19.1285 13.0256C17.7466 12.3243 15.614 11.5715 14.4343 11.3694C13.9162 11.2922 13.3923 11.2625 12.8688 11.2807C11.8974 11.3302 11.9407 11.2807 13.5 10.5423C14.7223 9.95526 16.014 9.52557 17.3444 9.26351C18.9944 8.91494 22.1005 8.91288 23.7257 9.2532C25.4789 9.62445 27.5475 10.3917 28.7128 11.1095L29.0593 11.3219L28.2653 11.2807C26.6854 11.2023 24.3878 11.8376 21.917 13.04C21.1724 13.403 20.5227 13.6918 20.4753 13.6835C20.0192 13.4776 19.5694 13.2582 19.1264 13.0256H19.1285Z" fill="#107B11"/>
</g>
<defs>
<filter id="filter0_d_418_272" x="0" y="9" width="139.241" height="41" filterUnits="userSpaceOnUse" color-interpolation-filters="sRGB">
<feFlood flood-opacity="0" result="BackgroundImageFix"/>
<feColorMatrix in="SourceAlpha" type="matrix" values="0 0 0 0 0 0 0 0 0 0 0 0 0 0 0 0 0 0 127 0" result="hardAlpha"/>
<feOffset dy="4"/>
<feGaussianBlur stdDeviation="2"/>
<feComposite in2="hardAlpha" operator="out"/>
<feColorMatrix type="matrix" values="0 0 0 0 0 0 0 0 0 0 0 0 0 0 0 0 0 0 0.25 0"/>
<feBlend mode="normal" in2="BackgroundImageFix" result="effect1_dropShadow_418_272"/>
<feBlend mode="normal" in="SourceGraphic" in2="effect1_dropShadow_418_272" result="shape"/>
</filter>
</defs>
</svg>
