<svg width="147" height="31" viewBox="0 0 147 31" fill="none" xmlns="http://www.w3.org/2000/svg">
<g clip-path="url(#clip0_418_276)">
<path d="M146.964 13.9319V11.395H143.754V7.45123L143.646 7.48392L140.632 8.38912L140.572 8.40687V11.3953H135.814V9.73086C135.814 8.95586 135.991 8.36235 136.339 7.96667C136.684 7.57579 137.179 7.37711 137.809 7.37711C138.262 7.37711 138.731 7.48195 139.204 7.6888L139.322 7.74037V5.06874L139.267 5.04873C138.826 4.89317 138.226 4.81482 137.484 4.81482C136.548 4.81482 135.697 5.01491 134.955 5.41115C134.213 5.80795 133.629 6.3744 133.22 7.09501C132.812 7.81449 132.606 8.64558 132.606 9.56515V11.3953H130.371V13.9322H132.606V24.6196H135.814V13.9319H140.572V20.7237C140.572 23.5211 141.916 24.9389 144.567 24.9389C145.003 24.9389 145.461 24.8885 145.93 24.7904C146.406 24.6898 146.731 24.5892 146.922 24.4815L146.964 24.4573V21.8967L146.833 21.9812C146.659 22.0956 146.442 22.1883 146.188 22.2574C145.932 22.3278 145.719 22.3634 145.554 22.3634C144.933 22.3634 144.474 22.1991 144.189 21.875C143.9 21.5481 143.754 20.976 143.754 20.1756V13.9319H146.964ZM123.206 22.3639C122.042 22.3639 121.124 21.9846 120.477 21.2381C119.826 20.4876 119.496 19.4178 119.496 18.0586C119.496 16.6565 119.826 15.5589 120.477 14.7951C121.124 14.0365 122.034 13.6515 123.18 13.6515C124.292 13.6515 125.178 14.0193 125.812 14.745C126.45 15.4749 126.773 16.5635 126.773 17.9822C126.773 19.4181 126.469 20.5214 125.869 21.2592C125.273 21.9916 124.377 22.3639 123.206 22.3639ZM123.349 11.0765C121.127 11.0765 119.363 11.7154 118.105 12.9757C116.847 14.2363 116.21 15.9802 116.21 18.1603C116.21 20.2308 116.832 21.8964 118.06 23.1096C119.287 24.3237 120.957 24.9386 123.024 24.9386C125.178 24.9386 126.907 24.2904 128.165 23.0129C129.422 21.7363 130.059 20.0088 130.059 17.8796C130.059 15.7767 129.461 14.0988 128.282 12.8934C127.102 11.6878 125.442 11.0765 123.349 11.0765ZM111.037 11.0765C109.526 11.0765 108.276 11.4559 107.321 12.2038C106.36 12.9563 105.873 13.9435 105.873 15.1378C105.873 15.7587 105.978 16.3102 106.185 16.778C106.393 17.2472 106.716 17.6604 107.144 18.0073C107.569 18.3511 108.224 18.7116 109.094 19.0782C109.824 19.3733 110.369 19.623 110.716 19.8197C111.054 20.0124 111.294 20.2063 111.43 20.3951C111.561 20.5797 111.629 20.8325 111.629 21.1448C111.629 22.0333 110.951 22.4654 109.556 22.4654C109.039 22.4654 108.448 22.3597 107.802 22.1506C107.16 21.9445 106.554 21.643 106.006 21.2564L105.873 21.1628V24.1946L105.922 24.2172C106.376 24.4229 106.948 24.5959 107.622 24.7326C108.296 24.8693 108.907 24.9389 109.439 24.9389C111.079 24.9389 112.4 24.5576 113.363 23.8049C114.333 23.0473 114.824 22.037 114.824 20.801C114.824 19.9096 114.56 19.1453 114.038 18.5287C113.52 17.9171 112.621 17.3557 111.367 16.8594C110.369 16.466 109.729 16.1394 109.465 15.8886C109.21 15.6462 109.081 15.3038 109.081 14.8701C109.081 14.4854 109.24 14.1774 109.568 13.9277C109.898 13.6769 110.357 13.5492 110.933 13.5492C111.468 13.5492 112.015 13.6321 112.559 13.7944C113.102 13.957 113.58 14.1746 113.978 14.4406L114.109 14.5285V11.6526L114.059 11.6312C113.691 11.4764 113.206 11.3443 112.617 11.2366C112.031 11.1304 111.499 11.0765 111.037 11.0765ZM97.5086 22.3636C96.3447 22.3636 95.4262 21.9846 94.7794 21.2381C94.1282 20.4876 93.7989 19.4181 93.7989 18.0586C93.7989 16.6565 94.1285 15.5589 94.7799 14.7951C95.4268 14.0365 96.3361 13.6515 97.4831 13.6515C98.595 13.6515 99.4805 14.0193 100.115 14.745C100.752 15.4749 101.076 16.5635 101.076 17.9822C101.076 19.4181 100.772 20.5214 100.172 21.2592C99.5761 21.9916 98.6806 22.3639 97.5086 22.3639V22.3636ZM97.6522 11.0765C95.4299 11.0765 93.6651 11.7154 92.4075 12.9757C91.1503 14.2363 90.5126 15.9802 90.5126 18.1603C90.5126 20.2317 91.1351 21.8964 92.3625 23.1096C93.5899 24.3237 95.2603 24.9386 97.3269 24.9386C99.4802 24.9386 101.21 24.2904 102.468 23.0129C103.725 21.7363 104.362 20.0088 104.362 17.8796C104.362 15.7767 103.764 14.0988 102.584 12.8934C101.404 11.6878 99.7443 11.0765 97.6519 11.0765H97.6522ZM85.6424 13.6853V11.395H82.473V24.6196H85.6421V17.8548C85.6421 16.7044 85.908 15.7595 86.4322 15.0457C86.9499 14.3403 87.6395 13.9832 88.4819 13.9832C88.7673 13.9832 89.0877 14.0291 89.4348 14.1207C89.7782 14.2115 90.0271 14.3101 90.1738 14.4138L90.3068 14.5085V11.3724L90.2557 11.3507C89.9602 11.2276 89.5431 11.1656 89.0145 11.1656C88.2183 11.1656 87.5054 11.4167 86.895 11.9113C86.3593 12.3458 85.972 12.9419 85.6757 13.6853H85.6421H85.6424ZM76.7977 11.0765C75.3438 11.0765 74.0469 11.3826 72.9435 11.9857C71.8382 12.5902 70.9834 13.4537 70.4021 14.5514C69.823 15.6465 69.5292 16.9254 69.5292 18.352C69.5292 19.6013 69.814 20.748 70.3774 21.7586C70.941 22.7709 71.7391 23.5628 72.7489 24.1118C73.7575 24.6605 74.9229 24.9389 76.2134 24.9389C77.7196 24.9389 79.0056 24.643 80.0366 24.0605L80.0782 24.0368V21.1868L79.945 21.2823C79.4707 21.6198 78.9483 21.8868 78.3946 22.0748C77.8344 22.2664 77.3237 22.3636 76.8758 22.3636C75.6326 22.3636 74.6343 21.9815 73.9094 21.2288C73.183 20.4746 72.8149 19.4161 72.8149 18.0837C72.8149 16.7431 73.1991 15.6572 73.9559 14.8557C74.7101 14.057 75.7101 13.6518 76.9283 13.6518C77.97 13.6518 78.9849 13.9979 79.9453 14.6818L80.0782 14.7765V11.7738L80.0351 11.7498C79.674 11.5514 79.181 11.3874 78.5689 11.2631C77.9599 11.1391 77.3639 11.0765 76.7974 11.0765H76.7977ZM67.3461 11.395H64.1769V24.6196H67.3463V11.3953L67.3461 11.395ZM65.7939 5.76145C65.2726 5.76145 64.8178 5.93561 64.4437 6.28112C64.0684 6.62776 63.8781 7.06373 63.8781 7.57833C63.8781 8.08476 64.0661 8.51284 64.4379 8.84989C64.8071 9.1861 65.2634 9.3566 65.7939 9.3566C66.3245 9.3566 66.7825 9.1861 67.1563 8.85046C67.5324 8.51284 67.7233 8.08476 67.7233 7.57833C67.7233 7.08148 67.5376 6.64974 67.1718 6.29493C66.8063 5.94097 66.3429 5.76145 65.7939 5.76145ZM57.8869 10.4193V24.6196H61.121V6.16642H56.6449L50.955 19.8726L45.4333 6.16642H40.7747V24.6196H43.814V10.4179H43.9185L49.7491 24.6193H52.0428L57.7822 10.4193H57.8867H57.8869Z" fill="#706D6E"/>
<path d="M14.9087 14.634H0V0H14.9087V14.634Z" fill="#F1511B"/>
<path d="M31.3696 14.634H16.4612V0H31.3696V14.634Z" fill="#80CC28"/>
<path d="M14.9082 30.7971H0V16.1635H14.9082V30.7971Z" fill="#00ADEF"/>
<path d="M31.3696 30.7971H16.4612V16.1635H31.3696V30.7971Z" fill="#FBBC09"/>
</g>
<defs>
<clipPath id="clip0_418_276">
<rect width="147" height="31" fill="white"/>
</clipPath>
</defs>
</svg>
